<?xml version="1.0" standalone="no"?>
<!DOCTYPE svg PUBLIC "-//W3C//DTD SVG 20010904//EN"
 "http://www.w3.org/TR/2001/REC-SVG-20010904/DTD/svg10.dtd">
<svg version="1.0" xmlns="http://www.w3.org/2000/svg"
 width="410.000000pt" height="413.000000pt" viewBox="0 0 410.000000 413.000000"
 preserveAspectRatio="xMidYMid meet">
<g transform="translate(0.000000,413.000000) scale(0.100000,-0.100000)"
fill="#da2140" stroke="none">
<path d="M1840 4029 c-453 -56 -851 -249 -1170 -569 -610 -610 -755 -1540
-359 -2310 146 -283 352 -520 620 -713 111 -79 376 -214 504 -256 412 -134
838 -134 1250 0 128 42 393 177 504 256 801 574 1068 1623 637 2498 -285 579
-804 965 -1451 1081 -107 19 -426 27 -535 13z m-250 -954 l0 -34 -57 -3 -58
-3 -3 -194 c-2 -134 1 -198 9 -207 6 -8 29 -14 50 -14 38 0 39 -1 39 -35 l0
-35 -55 0 c-46 0 -60 4 -87 29 l-33 29 -3 211 -3 210 -62 3 -62 3 -3 38 -3 37
165 0 166 0 0 -35z m120 -4 c0 -25 -5 -41 -15 -45 -10 -4 -15 -20 -15 -51 l0
-45 129 0 c125 0 131 -1 160 -26 l31 -26 0 -133 c0 -127 -1 -135 -24 -162 -24
-28 -25 -28 -164 -31 l-140 -3 -34 29 -33 30 -3 194 c-4 221 3 259 51 288 47
29 57 26 57 -19z m580 0 c0 -25 -5 -41 -15 -45 -13 -5 -15 -41 -15 -241 l0
-235 -40 0 -40 0 0 229 c0 252 5 282 54 312 46 28 56 25 56 -20z m-151 -29
c27 -50 -35 -97 -70 -53 -18 22 -16 49 5 63 20 14 55 8 65 -10z m255 12 c20
-8 21 -57 1 -74 -20 -17 -62 -5 -70 20 -13 42 24 71 69 54z m464 -6 c7 -7 12
-21 12 -33 0 -47 -62 -63 -81 -21 -22 47 33 90 69 54z m-746 -147 l33 -29 3
-161 4 -161 -41 0 -41 0 0 144 c0 115 -3 146 -15 156 -8 7 -15 28 -15 46 0 44
27 46 72 5z m267 3 l31 -26 0 -164 0 -164 -35 0 -35 0 0 144 c0 115 -3 146
-15 156 -8 7 -15 28 -15 46 0 43 25 46 69 8z m361 -9 l0 -35 -50 0 c-64 0 -70
-11 -70 -140 0 -56 -5 -110 -10 -121 -17 -30 -64 -49 -125 -49 l-55 0 0 35 0
35 50 0 c65 0 70 11 70 145 0 104 1 107 29 136 27 26 36 29 95 29 l66 0 0 -35z
m101 6 l29 -29 0 -161 0 -161 -40 0 -40 0 0 149 c0 89 -4 152 -10 156 -5 3
-10 22 -10 41 0 28 4 34 21 34 11 0 34 -13 50 -29z m-1793 -462 c29 -15 54
-37 73 -67 l29 -46 0 -223 c0 -248 -2 -256 -64 -311 -56 -49 -88 -54 -331 -50
-247 3 -258 6 -319 81 l-31 39 -3 216 c-2 132 1 231 7 252 12 42 63 97 106
116 22 10 92 13 259 14 215 0 233 -1 274 -21z m850 6 c90 -38 121 -99 122
-235 0 -116 -21 -168 -88 -215 l-44 -30 -254 -3 -254 -3 0 -110 0 -109 -60 0
-60 0 0 360 0 360 300 0 c249 0 307 -3 338 -15z m972 -35 l0 -50 -294 0 c-356
0 -339 6 -344 -119 l-4 -81 306 0 306 0 0 -55 0 -56 -302 1 -303 1 0 -85 c0
-129 -23 -120 335 -124 l300 -3 0 -49 0 -50 -298 0 c-289 0 -299 1 -342 23
-24 12 -58 39 -74 60 l-31 39 0 238 0 238 31 39 c16 21 50 48 74 61 43 21 53
22 342 22 l298 0 0 -50z m735 31 c48 -22 79 -54 100 -103 12 -31 15 -87 15
-318 l0 -280 -55 0 -54 0 -3 291 -3 291 -24 19 c-21 17 -41 19 -236 19 -200 0
-214 -1 -239 -21 l-26 -20 0 -290 0 -289 -55 0 -55 0 0 293 0 293 29 45 c18
30 44 53 72 67 41 21 58 22 269 22 197 0 230 -3 265 -19z m-1727 -781 c20 -13
41 -38 53 -65 18 -40 19 -64 17 -252 l-3 -208 -42 -3 -43 -3 0 90 0 91 -200 0
-199 0 -3 -87 -3 -88 -43 -3 -43 -3 3 235 3 235 30 31 c17 18 39 36 50 40 11
5 103 9 205 9 169 1 188 -1 218 -19z m242 -256 l0 -275 -42 3 -43 3 0 48 c1
26 2 148 3 272 l2 225 40 0 40 0 0 -276z m601 253 c89 -59 92 -208 7 -268 -16
-12 -51 -24 -78 -28 l-49 -6 99 -105 c54 -58 99 -108 100 -112 0 -5 -22 -8
-49 -8 l-49 0 -110 115 -110 115 -91 0 -91 0 0 -115 0 -115 -45 0 -45 0 0 275
0 275 239 0 c231 0 239 -1 272 -23z"/>
<path d="M1692 2848 c-8 -8 -12 -47 -12 -108 0 -61 4 -100 12 -108 8 -8 48
-12 115 -12 91 0 103 2 113 19 14 28 13 194 -2 209 -8 8 -48 12 -113 12 -65 0
-105 -4 -113 -12z"/>
<path d="M531 2334 c-20 -25 -21 -39 -21 -234 0 -188 2 -210 19 -231 18 -23
20 -23 246 -24 226 0 227 0 246 24 17 21 19 41 19 231 0 195 -1 209 -21 234
l-20 26 -224 0 -224 0 -20 -26z"/>
<path d="M1380 2215 l0 -145 249 0 c219 0 250 2 262 17 10 11 14 47 14 125 0
156 16 148 -286 148 l-239 0 0 -145z"/>
<path d="M1472 1588 c-8 -8 -12 -46 -12 -105 l0 -93 200 0 200 0 0 86 c0 131
11 124 -198 124 -125 0 -182 -4 -190 -12z"/>
<path d="M2300 1520 l0 -80 190 0 c177 0 190 1 200 19 14 27 13 114 -2 129 -8
8 -67 12 -200 12 l-188 0 0 -80z"/>
</g>
<g transform="translate(0.000000,413.000000) scale(0.100000,-0.100000)"
fill="#000000" style="background:#ffffff;" stroke="none">
<path d="M470 630 l0 -250 1580 0 1580 0 0 250 0 250 -1580 0 -1580 0 0 -250z
m693 148 c9 -11 17 -31 17 -44 0 -19 -5 -24 -25 -24 -18 0 -25 5 -25 19 0 20
-25 35 -41 25 -5 -3 -9 -18 -9 -34 0 -22 14 -45 50 -85 44 -49 50 -60 50 -100
0 -57 -25 -85 -75 -85 -46 0 -85 37 -85 80 0 25 4 30 24 30 19 0 25 -6 28 -27
2 -22 8 -28 28 -28 19 0 26 6 28 26 2 20 -9 38 -47 78 -56 58 -71 103 -51 151
21 50 95 60 133 18z m254 22 c33 -12 53 -45 53 -90 0 -25 -4 -30 -25 -30 -21
0 -25 5 -25 29 0 37 -24 59 -45 41 -13 -11 -15 -35 -13 -129 3 -104 5 -116 22
-119 23 -5 36 14 36 51 0 22 4 27 25 27 23 0 25 -4 25 -40 0 -30 -7 -47 -25
-65 -31 -32 -86 -34 -115 -5 -18 18 -20 33 -20 158 0 148 5 163 55 175 11 2
20 5 21 6 1 0 15 -4 31 -9z m1262 -1 c50 -18 71 -89 26 -89 -15 0 -25 6 -25
14 0 7 -7 19 -15 26 -12 10 -18 10 -30 0 -26 -22 -17 -50 36 -105 42 -45 52
-63 56 -99 5 -38 2 -48 -20 -70 -53 -53 -137 -23 -137 49 0 30 3 35 24 35 19
0 25 -6 28 -27 3 -31 35 -44 49 -21 13 20 0 49 -41 93 -47 50 -60 75 -60 117
0 41 22 75 53 81 12 2 22 5 23 6 1 0 16 -4 33 -10z m-2029 -91 c7 -51 16 -104
20 -118 6 -24 7 -23 13 10 3 19 11 72 18 118 l11 82 39 0 39 0 0 -175 0 -175
-25 0 c-24 0 -24 1 -27 108 l-3 107 -12 -65 c-6 -36 -15 -84 -18 -107 -6 -37
-10 -43 -31 -43 -13 0 -24 1 -25 3 0 1 -8 47 -19 102 l-18 100 -1 -102 c-1
-103 -1 -103 -26 -103 l-25 0 0 175 0 175 39 0 38 0 13 -92z m232 -55 l3 -148
25 0 25 0 3 148 3 147 24 0 25 0 0 -149 c0 -135 -2 -151 -21 -175 -26 -33 -88
-37 -119 -6 -18 18 -20 33 -20 175 l0 155 25 0 24 0 3 -147z m388 -28 l0 -175
-30 0 -30 0 0 175 0 175 30 0 30 0 0 -175z m448 159 c18 -12 22 -25 22 -68 0
-28 -5 -57 -11 -63 -8 -8 -7 -17 5 -34 22 -33 21 -111 -3 -140 -15 -19 -30
-24 -85 -27 l-66 -4 0 176 0 176 58 0 c36 0 66 -6 80 -16z m206 -3 c26 -28 32
-93 12 -131 -14 -29 -14 -35 -1 -53 9 -14 15 -45 15 -85 0 -63 0 -63 -27 -60
-27 3 -28 6 -33 68 -4 58 -7 65 -27 68 -22 3 -23 0 -23 -67 l0 -71 -30 0 -30
0 0 175 0 175 63 0 c50 0 68 -4 81 -19z m206 -6 c0 -23 -4 -25 -45 -25 l-45 0
0 -50 0 -50 35 0 c31 0 35 -3 35 -25 0 -22 -4 -25 -35 -25 l-35 0 0 -50 0 -50
45 0 c41 0 45 -2 45 -25 0 -24 -2 -25 -75 -25 l-75 0 0 175 0 175 75 0 c73 0
75 -1 75 -25z m160 20 c0 -2 11 -73 25 -157 31 -189 31 -188 1 -188 -19 0 -25
7 -30 36 -7 32 -10 35 -39 32 -27 -2 -33 -8 -37 -33 -4 -23 -11 -31 -31 -33
l-26 -3 23 143 c37 230 29 208 74 208 22 0 40 -2 40 -5z m141 -62 l1 -68 31
67 c28 58 36 67 59 68 l27 0 -36 -80 -35 -79 36 -91 c20 -49 36 -93 36 -96 0
-3 -12 -4 -27 -2 -23 3 -31 12 -51 66 -13 34 -28 62 -33 62 -5 0 -9 -29 -9
-65 l0 -65 -30 0 -30 0 0 175 0 175 30 0 30 0 1 -67z m549 42 c0 -23 -4 -25
-45 -25 l-45 0 0 -49 0 -50 38 -3 c29 -2 38 -8 40 -25 3 -19 -2 -22 -35 -25
l-38 -3 -3 -72 c-3 -70 -4 -73 -27 -73 l-25 0 0 175 0 175 70 0 c68 0 70 -1
70 -25z m167 10 c29 -21 39 -82 19 -129 -13 -31 -13 -39 -1 -63 8 -16 15 -54
15 -86 0 -58 0 -58 -27 -55 -27 3 -28 6 -33 68 -4 58 -7 65 -27 68 -22 3 -23
0 -23 -67 l0 -71 -30 0 -30 0 0 175 0 175 58 0 c35 0 66 -6 79 -15z m213 -10
c0 -23 -4 -25 -45 -25 l-45 0 0 -50 0 -50 35 0 c31 0 35 -3 35 -25 0 -22 -4
-25 -35 -25 l-35 0 0 -50 0 -50 45 0 c41 0 45 -2 45 -25 0 -24 -2 -25 -75 -25
l-75 0 0 175 0 175 75 0 c73 0 75 -1 75 -25z m190 0 c0 -23 -3 -25 -50 -25
l-50 0 0 -50 0 -50 41 0 c36 0 40 -2 37 -22 -2 -19 -10 -24 -40 -26 l-38 -3 0
-50 0 -49 50 0 c47 0 50 -2 50 -25 0 -24 -2 -25 -75 -25 l-75 0 0 175 0 175
75 0 c73 0 75 -1 75 -25z"/>
<path d="M1640 705 c0 -42 2 -46 23 -43 19 3 22 9 22 43 0 34 -3 40 -22 43
-21 3 -23 -1 -23 -43z"/>
<path d="M1640 556 c0 -50 2 -56 20 -56 47 0 49 101 2 108 -20 3 -22 -1 -22
-52z"/>
<path d="M1840 696 c0 -56 8 -66 38 -47 9 5 12 24 10 52 -2 37 -7 45 -25 47
-22 3 -23 0 -23 -52z"/>
<path d="M2236 675 c-4 -28 -10 -65 -13 -82 -5 -31 -3 -33 22 -33 l27 0 -7 63
c-11 94 -21 111 -29 52z"/>
<path d="M3070 696 c0 -41 4 -56 14 -56 23 0 37 27 34 67 -2 31 -7 39 -25 41
-22 3 -23 0 -23 -52z"/>
</g>
<g transform="translate(0.000000,413.000000) scale(0.100000,-0.100000)"
fill="white" stroke="none">
<path d="M1045 785 c-19 -18 -25 -35 -25 -69 0 -39 6 -51 48 -98 58 -63 65
-80 46 -105 -14 -17 -14 -17 -29 1 -8 11 -15 26 -15 33 0 7 -11 13 -25 13 -22
0 -25 -4 -25 -35 0 -49 29 -75 83 -75 46 0 69 16 82 58 12 40 -6 83 -57 139
-33 37 -48 62 -46 76 4 30 42 30 46 0 2 -17 10 -23 27 -23 31 0 36 10 25 52
-17 59 -91 78 -135 33z"/>
<path d="M1330 790 c-28 -28 -32 -54 -28 -183 4 -138 14 -157 85 -157 58 0 83
25 83 85 0 43 -1 45 -30 45 -28 0 -30 -3 -30 -34 0 -39 -14 -53 -35 -36 -11 9
-15 37 -15 110 0 112 4 130 31 130 15 0 19 -7 19 -35 0 -32 2 -35 30 -35 28 0
30 2 30 40 0 30 -7 47 -25 65 -31 31 -86 34 -115 5z"/>
<path d="M2596 789 c-22 -17 -26 -28 -26 -70 0 -45 4 -53 51 -105 38 -42 49
-62 47 -82 -5 -40 -37 -42 -44 -3 -6 26 -11 31 -36 31 -29 0 -30 -1 -23 -37
10 -55 30 -73 82 -73 57 0 83 25 83 81 0 50 -12 74 -61 122 -45 43 -55 97 -19
97 13 0 22 -9 26 -25 4 -18 13 -25 30 -25 21 0 24 5 24 34 0 41 -37 76 -80 76
-15 0 -39 -9 -54 -21z"/>
<path d="M560 625 l0 -175 25 0 c25 0 25 1 26 93 l2 92 15 -92 c15 -92 16 -93
44 -93 30 0 31 3 47 100 l9 55 1 -77 1 -78 30 0 30 0 0 175 0 175 -39 0 c-44
0 -42 4 -62 -130 -14 -94 -14 -94 -39 58 l-12 72 -39 0 -39 0 0 -175z"/>
<path d="M822 646 c4 -183 10 -196 89 -196 74 0 79 13 79 197 l0 153 -25 0
-25 0 0 -139 c0 -115 -3 -141 -16 -152 -14 -11 -18 -10 -30 6 -10 14 -14 54
-14 152 l0 133 -31 0 -31 0 4 -154z"/>
<path d="M1210 625 l0 -175 30 0 30 0 0 175 0 175 -30 0 -30 0 0 -175z"/>
<path d="M1580 625 l0 -175 63 0 c87 0 107 19 107 99 0 39 -5 63 -15 71 -13
11 -13 16 1 43 20 37 13 106 -12 124 -10 7 -45 13 -81 13 l-63 0 0 -175z m106
98 c8 -30 -5 -56 -30 -61 -13 -3 -16 5 -16 42 0 39 3 46 20 46 13 0 22 -9 26
-27z m-12 -119 c22 -9 22 -89 0 -98 -30 -12 -34 -6 -34 49 0 55 4 61 34 49z"/>
<path d="M1780 625 l0 -175 30 0 30 0 0 71 c0 67 1 70 23 67 20 -3 22 -9 25
-70 l3 -68 32 0 32 0 -5 73 c-3 41 -10 80 -17 88 -9 11 -8 19 3 33 19 26 18
106 -2 134 -13 19 -24 22 -85 22 l-69 0 0 -175z m105 75 c0 -39 -3 -45 -22
-48 -21 -3 -23 0 -23 48 0 48 2 51 23 48 19 -3 22 -9 22 -48z"/>
<path d="M1980 625 l0 -175 80 0 c79 0 80 0 80 25 0 23 -3 25 -50 25 l-50 0 0
50 0 50 41 0 c38 0 40 1 37 28 -3 23 -8 27 -40 30 -38 3 -38 4 -38 48 l0 44
50 0 c47 0 50 2 50 25 0 25 -1 25 -80 25 l-80 0 0 -175z"/>
<path d="M2182 648 c-13 -84 -26 -163 -29 -175 -5 -20 -1 -23 26 -23 28 0 31
3 31 30 0 28 3 30 34 30 30 0 35 -3 38 -27 2 -24 8 -29 36 -31 33 -3 33 -3 27
30 -3 18 -16 96 -28 173 l-23 140 -44 3 -45 3 -23 -153z m81 -40 c5 -34 3 -38
-15 -38 -19 0 -20 4 -14 53 3 28 6 61 7 72 1 21 13 -25 22 -87z"/>
<path d="M2370 625 l0 -175 30 0 c30 0 30 0 30 59 0 33 4 62 8 65 4 2 18 -24
31 -60 22 -61 24 -64 56 -64 l33 0 -39 99 -40 99 35 71 c20 39 36 73 36 76 0
3 -13 5 -28 5 -24 0 -32 -8 -59 -62 l-32 -63 0 63 -1 62 -30 0 -30 0 0 -175z"/>
<path d="M2840 625 l0 -175 30 0 30 0 0 70 0 70 35 0 c32 0 35 2 35 30 0 28
-3 30 -35 30 l-35 0 0 50 0 50 45 0 c41 0 45 2 45 25 0 24 -2 25 -75 25 l-75
0 0 -175z"/>
<path d="M3010 625 l0 -175 30 0 30 0 0 70 c0 62 2 70 19 70 24 0 31 -19 31
-86 0 -53 0 -54 30 -54 l30 0 0 68 c0 43 -5 75 -14 87 -12 17 -12 22 0 39 8
11 14 42 14 68 0 70 -22 88 -105 88 l-65 0 0 -175z m106 100 c10 -38 -3 -75
-26 -75 -17 0 -20 7 -20 50 0 43 3 50 20 50 13 0 22 -9 26 -25z"/>
<path d="M3210 625 l0 -175 75 0 c73 0 75 1 75 25 0 23 -4 25 -45 25 l-45 0 0
50 0 50 41 0 c38 0 40 1 37 28 -3 23 -8 27 -40 30 -38 3 -38 4 -38 48 l0 44
45 0 c41 0 45 2 45 25 0 24 -2 25 -75 25 l-75 0 0 -175z"/>
<path d="M3390 625 l0 -175 80 0 c78 0 80 1 80 24 0 23 -5 25 -47 28 l-48 3
-3 48 -3 47 40 0 c39 0 41 2 41 30 0 28 -2 30 -40 30 l-40 0 0 45 0 45 50 0
c47 0 50 2 50 25 0 25 -1 25 -80 25 l-80 0 0 -175z"/>
</g>
</svg>
